# xmcd CD database file
#
# Track frame offsets:
#	150
#	14832
#	35660
#	53380
#	71952
#	92512
#	107307
#	127485
#	142932
#	159180
#
# Disc length: 2524 seconds
#
# Revision: 0
# Processed by: cddbd v1.5PL3 Copyright (c) Steve Scherf et al.
# Submitted via: CDex 1.50
#
DISCID=8309da0a
DTITLE=SAMSON - Head Tactics
DYEAR=1985
DGENRE=Hard Rock
TTITLE0=Vice Versa
TTITLE1=Earth Mother
TTITLE2=Losing My Grip
TTITLE3=Take It Like A Man
TTITLE4=Once Bitten
TTITLE5=Go To Hell
TTITLE6=Hard Times
TTITLE7=Nice Girl
TTITLE8=Too Close To Rock
TTITLE9=Walking Out On You
EXTD=YEAR: 1985
EXTT0=
EXTT1=
EXTT2=
EXTT3=
EXTT4=
EXTT5=
EXTT6=
EXTT7=
EXTT8=
EXTT9=
PLAYORDER=
